<?xml version="1.0" encoding="UTF-8"?>
<svg version="1.1" viewBox="0 0 1600 1576" width="1280" height="1280" xmlns="http://www.w3.org/2000/svg">
<path transform="translate(0)" d="m0 0h1600v1576h-1600v-1576z"/>
<path transform="translate(592 612)" d="m0 0c1.37 0.00139 2.73 0.00146 4.1 3.31e-4 3.74 7.38e-4 7.48 0.0203 11.2 0.043 4.04 0.0212 8.08 0.025 12.1 0.0309 7.92 0.0145 15.8 0.0452 23.7 0.0815 9.23 0.0418 18.5 0.068 27.7 0.0938 16.5 0.0467 33 0.108 49.5 0.178 16 0.0674 31.9 0.123 47.9 0.166 17.4 0.0469 34.8 0.0998 52.2 0.164 1.86 0.00682 3.72 0.0136 5.58 0.0205 1.37 0.00505 1.37 0.00505 2.77 0.0102 6.42 0.0233 12.8 0.0425 19.3 0.0602 7.84 0.0219 15.7 0.051 23.5 0.089 3.99 0.0192 7.99 0.0355 12 0.0432 41.6 0.0863 41.6 0.0863 56.2 4.61 0.73 0.214 1.46 0.428 2.21 0.648 7.07 2.15 13.8 4.91 20.5 8.1 1.17 0.547 1.17 0.547 2.37 1.11 21.1 10.7 36.1 29.8 43.6 51.9 0.308 0.848 0.616 1.7 0.934 2.57 7.75 21.9 4.32 51-5.45 71.6-2.45 4.61-5 8.87-8.48 12.8-0.44 0.54-0.879 1.08-1.33 1.64-3.12 3.79-6.39 6.97-10.2 10-1.69 1.41-1.69 1.41-2.42 4.36 0.522 0.28 1.04 0.559 1.58 0.848 19.1 10.4 34.9 23.4 45.4 42.8 0.374 0.689 0.748 1.38 1.13 2.09 2.23 4.34 3.56 8.46 4.47 13.3 0.395 2.17 0.395 2.17 1.46 4.97 2.4 7.66 2.12 15.9 2.12 23.9 0.0122 1.01 0.0245 2.02 0.0371 3.07 0.0182 9.48-1.57 18.3-4.16 27.4-0.318 1.14-0.637 2.28-0.965 3.46-1.06 3.05-2.36 5.46-4.1 8.16-0.412 0.908-0.825 1.82-1.25 2.75-3.55 6.59-8.41 12.1-13.8 17.2-0.578 0.772-1.16 1.54-1.75 2.34-2.55 3.01-5.36 5.23-8.56 7.47-0.611 0.429-1.22 0.859-1.85 1.3-10 6.89-20 12.1-31.8 15.1-2.99 0.709-2.99 0.709-5.58 1.82-7.72 3.05-16.6 3.24-24.8 3.72-2.6 0.085-2.6 0.085-4.62 1.25-1.95 0.0993-3.91 0.133-5.87 0.137-1.89 0.00761-1.89 0.00761-3.81 0.0154-1.41 6.02e-4 -2.82 0.0011-4.23 0.00151-1.49 0.00401-2.97 0.00845-4.46 0.0133-4.1 0.012-8.2 0.0176-12.3 0.0222-4.42 0.00595-8.84 0.0176-13.3 0.0283-10.7 0.0245-21.4 0.0392-32 0.0521-3.01 0.00371-6.03 0.00768-9.04 0.0118-18.7 0.0252-37.4 0.0473-56.1 0.0597-4.33 0.00293-8.67 0.00589-13 0.00891-1.62 0.00112-1.62 0.00112-3.26 0.00226-17.5 0.0127-34.9 0.0459-52.4 0.0875-17.9 0.0424-35.8 0.066-53.7 0.0712-10.1 0.00342-20.1 0.0152-30.2 0.0481-8.57 0.0279-17.1 0.039-25.7 0.0278-4.37-0.0052-8.75-0.00221-13.1 0.0225-4 0.0224-8 0.0218-12 0.0028-1.45-0.00281-2.9 0.00288-4.35 0.0178-1.97 0.019-3.93 0.00436-5.9-0.0121-1.64 0.00203-1.64 0.00203-3.31 0.00411-4-0.849-5.48-2.39-7.93-5.62-0.623-2.78-0.623-2.78-0.621-5.87-0.0112-1.18-0.0224-2.37-0.0339-3.58 0.0132-1.3 0.0264-2.59 0.04-3.93-0.00361-1.39-0.00942-2.79-0.0172-4.18-0.0151-3.83 0.00108-7.66 0.0223-11.5 0.0175-4.13 0.00611-8.26-0.00167-12.4-0.0107-8.09 0.00529-16.2 0.0301-24.3 0.0279-9.42 0.0293-18.8 0.0294-28.3 0.00119-16.8 0.0262-33.6 0.0647-50.4 0.0373-16.3 0.0586-32.6 0.0615-48.9 1.83e-4 -1 3.66e-4 -2.01 5.54e-4 -3.04 1.79e-4 -1 3.58e-4 -2.01 5.42e-4 -3.04 3.65e-4 -2.02 7.38e-4 -4.04 0.00112-6.06 1.86e-4 -0.996 3.71e-4 -1.99 5.62e-4 -3.02 0.00357-15.5 0.022-31.1 0.0419-46.6 0.00702-5.63 0.0118-11.3 0.015-16.9 0.00505-8.94 0.0165-17.9 0.0413-26.8 0.0112-4.08 0.0193-8.17 0.0189-12.3-3.09e-4 -3.74 0.00864-7.48 0.025-11.2 0.00635-1.99 0.00299-3.98-7.39e-4 -5.98 0.0744-12.5 0.0744-12.5 2.28-16.7 6.72-3.92 13.9-3.4 21.5-3.34z" fill="#FCFDFF"/>
<path transform="translate(323 604)" d="m0 0c1.59 0.0587 1.59 0.0587 3.22 0.119 7.26 0.312 7.26 0.312 10.3 0.935 2.92 0.578 5.76 0.79 8.73 0.974 1.19 0.078 2.38 0.156 3.6 0.236 2.46 0.156 4.93 0.309 7.39 0.461 22.5 1.49 22.5 1.49 24.9 3.84 1.57 0.343 3.15 0.634 4.73 0.902 1.45 0.252 1.45 0.252 2.93 0.51 2.04 0.348 4.08 0.694 6.12 1.04 0.972 0.17 1.94 0.339 2.95 0.514 0.889 0.151 1.78 0.301 2.69 0.457 2.68 0.602 5.04 1.52 7.57 2.58 1.93 0.508 3.87 0.986 5.81 1.44 4.91 1.2 9.52 2.64 14.2 4.56 0.856 0.336 1.71 0.673 2.59 1.02 27.5 11 53.7 26.7 71.4 51 0.674 0.882 1.35 1.76 2.04 2.67 4.63 6.16 8.45 12.5 12 19.3 0.454 0.846 0.908 1.69 1.38 2.56 2.52 4.8 4.43 9.48 5.85 14.7 0.669 2.35 1.43 4.62 2.22 6.93 1.58 4.7 2.75 9.43 3.74 14.3 0.174 0.855 0.349 1.71 0.528 2.59 1.58 8.39 1.59 16.4 1.28 24.9-14.7 1.2-29.3 1.1-44.1 0.998-2.07-0.014-4.14-0.0266-6.2-0.0387-7.23-0.0427-14.5-0.0919-21.7-0.147-6.72-0.0506-13.4-0.0856-20.2-0.114-5.8-0.0252-11.6-0.0617-17.4-0.107-3.45-0.0268-6.9-0.0488-10.4-0.059-3.83-0.0118-7.66-0.0471-11.5-0.0847-1.14-1.36e-4 -2.28-2.72e-4 -3.46-4.12e-4 -1.04-0.014-2.08-0.028-3.15-0.0424-0.904-0.00591-1.81-0.0118-2.74-0.0179-2.75-0.465-3.6-1.22-5.29-3.39-0.957-1.98-0.957-1.98-1.81-4.19-5.42-12.6-15.5-20.8-28-26.1-5.62-1.99-11.5-2.98-17.4-4.03-3.76-0.727-3.76-0.727-4.76-1.73-38.2-5.56-38.2-5.56-75 1-1.75 0.296-3.5 0.562-5.25 0.812-11.3 1.82-21.9 4.7-31.4 11.2-2.17 1.5-4.18 2.85-6.59 3.93-2.14 0.937-2.14 0.937-2.79 4h-2c-0.66 1.65-1.32 3.3-2 5h-2c-0.273 0.835-0.273 0.835-0.551 1.69-1.48 4.49-3.03 8.91-4.8 13.3-2.18 6.79-1.87 13.9-1.89 20.9-0.00961 2.04-0.0406 4.08-0.0723 6.11-0.12 14.7 1.8 27.7 11.9 38.8 0.784 0.701 1.57 1.4 2.38 2.12 0.577 0.639 1.16 1.28 1.75 1.94 9.24 8.47 19.7 12 31.9 14.4 3.39 0.711 3.39 0.711 6.84 1.73 33.5 9.28 82.9 6.45 114-10 9.83-6.08 14.9-13.9 19.2-24.5 1.98-2.82 3.22-3.34 6.49-4.17 5.08-0.815 10.2-0.601 15.4-0.551 1.96 0.00696 1.96 0.00696 3.95 0.0141 3.56 0.0133 7.12 0.0396 10.7 0.0691 2.98 0.0236 5.95 0.041 8.93 0.0585 7.01 0.0415 14 0.0937 21 0.153 7.24 0.0607 14.5 0.103 21.7 0.136 6.22 0.0292 12.4 0.0698 18.7 0.12 3.71 0.0297 7.43 0.055 11.1 0.0691 4.13 0.0163 8.26 0.0567 12.4 0.0994 1.85 0.00256 1.85 0.00256 3.74 0.00517 1.12 0.0154 2.24 0.0309 3.39 0.0468 0.977 0.00721 1.95 0.0144 2.96 0.0218 0.765 0.129 1.53 0.258 2.32 0.39 4.34 6.51 2.37 18.5 1 26-0.316 0.927-0.632 1.85-0.957 2.81-1.05 3.22-1.72 6.36-2.36 9.69-4.08 19.1-13.3 40.8-27.7 54.5-0.907 1.1-1.8 2.2-2.69 3.31-0.763 0.887-1.53 1.77-2.31 2.69h-2c-0.268 0.639-0.536 1.28-0.812 1.94-1.19 2.06-1.19 2.06-4.19 3.06-0.33 0.99-0.66 1.98-1 3-1.33 0.667-2.67 1.33-4 2-0.866 0.866-1.73 1.73-2.62 2.62-0.784 0.784-1.57 1.57-2.38 2.38h-2c-0.33 0.99-0.66 1.98-1 3-1.5 1.12-1.5 1.12-3.42 2.16-0.696 0.383-1.39 0.766-2.11 1.16-0.732 0.391-1.46 0.781-2.22 1.18-1.43 0.781-2.86 1.56-4.3 2.34-1.04 0.561-1.04 0.561-2.1 1.13-1.44 0.792-2.85 1.63-4.25 2.49-7.63 4.48-15.7 7.94-23.9 11.2-1.01 0.394-2.01 0.788-3.05 1.19-6.29 2.41-12.4 4.41-19 5.65-2.69 0.492-2.69 0.492-5.47 1.51-3.61 1.18-7.23 1.88-11 2.53-4.29 0.773-8.57 1.55-12.8 2.56-9.47 2.16-19.1 3.11-28.8 3.69-2.54 0.0912-2.54 0.0912-4.55 1.25-2.6 0.245-5.16 0.425-7.77 0.555-0.829 0.042-1.66 0.0841-2.51 0.127-11.5 0.517-23 0.467-34.5 0.448-3.92-0.00534-7.85-3.29e-5 -11.8 0.00635-11.9 0.00356-23.8-0.0905-35.8-0.582-1.46-0.0581-1.46-0.0581-2.95-0.117-1.32-0.062-1.32-0.062-2.66-0.125-0.766-0.0359-1.53-0.0717-2.32-0.109-1.74-0.203-1.74-0.203-2.74-1.2-2.59-0.338-5.17-0.62-7.77-0.867-1.63-0.165-3.26-0.33-4.88-0.496-2.56-0.256-5.12-0.508-7.69-0.756-9.8-0.955-19.2-2.16-28.7-4.88-1.39-0.349-2.78-0.693-4.18-1.03-24-5.91-24-5.91-33.8-9.97l-2.93-1.17c-14.6-6.01-28.7-13-41.1-22.8-1.46-1.06-2.92-2.13-4.38-3.19-3.15-2.37-5.91-4.95-8.62-7.81-0.825-0.825-1.65-1.65-2.5-2.5-0.825-0.825-1.65-1.65-2.5-2.5l-2.31-2.25c-0.887-0.908-1.77-1.82-2.69-2.75-0.575-0.567-1.15-1.13-1.74-1.72-12.4-13-19.9-30.4-25.3-47.3-0.503-1.4-0.503-1.4-1.02-2.84-1.18-3.79-1.88-7.57-2.55-11.5-0.439-4.73-0.439-4.73-2.44-8.69-1.57-8.65-1.16-17.6-1.17-26.4-0.00322-1.58-0.00659-3.15-0.0101-4.73-0.00595-3.29-0.00784-6.58-0.00725-9.86 1.02e-4 -4.19-0.0136-8.38-0.0308-12.6-0.0112-3.25-0.0131-6.5-0.0126-9.75-0.00117-1.54-0.00554-3.09-0.0133-4.63-0.0378-8.26 0.247-16 2.24-24.1 0.319-1.65 0.63-3.31 0.93-4.96 2.62-13.9 6.72-25.7 13.2-38.3 1.85-3.62 3.49-7.29 5.01-11.1 1.02-1.96 2.3-3.18 3.89-4.7 0.33-0.66 0.66-1.32 1-2 1.08-2.16 2.3-3.3 4-5 0.958-1.23 1.89-2.49 2.81-3.75 10.1-13.6 23.2-23.3 37.8-31.8 1.8-1.08 3.56-2.24 5.3-3.43 14.3-9.34 34-16.8 50.8-20.1 2.47-0.489 4.74-1.08 7.13-1.9 3.46-1.12 6.87-1.85 10.4-2.54 4.24-0.819 8.47-1.65 12.7-2.56 10.9-2.17 22-3.12 33.1-3.69 2.85-0.0595 2.85-0.0595 4.91-1.25 2.99-0.25 5.95-0.432 8.94-0.562 0.953-0.0417 1.91-0.0835 2.89-0.126 20-0.766 40.1-0.615 60 0.126z" fill="#FCFDFF"/>
<path transform="translate(1407 612)" d="m0 0c1.56-0.00423 1.56-0.00423 3.15-0.00854 1.13 0.00202 2.27 0.00405 3.44 0.00613 1.8-0.00263 1.8-0.00263 3.63-0.00531 3.29-0.00365 6.57-0.00279 9.86 3.79e-4 3.44 0.00253 6.89 1.83e-4 10.3-0.00139 5.78-0.00182 11.6 5.78e-4 17.4 0.00534 6.68 0.00543 13.4 0.00368 20-0.00183 5.74-0.00455 11.5-0.00517 17.2-0.00256 3.42 0.00155 6.85 0.00178 10.3-0.00154 3.82-0.00254 7.65 0.00134 11.5 0.0069 1.13-0.00202 2.26-0.00405 3.42-0.00613 11 0.0297 11 0.0297 15.7 1.14 2.5 3.75 2.28 6.68 2.25 11 0.00312 0.828 0.00624 1.66 0.00945 2.51 8e-3 2.78 0.00165 5.57-0.00463 8.35 0.00271 1.99 0.00627 3.99 0.0106 5.98 0.00914 5.42 0.00557 10.8-7.58e-4 16.3-0.00506 5.68-3.68e-4 11.4 0.00277 17.1 0.00364 9.56-0.00117 19.1-0.0107 28.7-0.0108 11-0.00739 22 0.00365 33.1 0.00911 9.48 0.0103 19 0.00512 28.4-0.0031 5.65-0.00358 11.3 0.00307 17 0.00583 5.33 0.00167 10.7-0.00979 16-0.00262 1.94-0.00193 3.89 0.00253 5.83 0.0319 15.4-0.778 30.4-4.52 45.4-0.217 0.881-0.434 1.76-0.657 2.67-8.34 32.7-27.4 60.3-55.1 79.8-0.771 0.554-1.54 1.11-2.34 1.68-5.9 4.11-12.2 7.2-18.7 10.3-1.44 0.727-2.88 1.46-4.31 2.19-5.6 2.79-11.3 5.07-17.2 6.99-2.68 0.896-5.31 1.89-7.95 2.88-4.08 1.5-8.07 2.64-12.3 3.45-2.29 0.479-2.29 0.479-4.94 1.45-3.64 1.17-7.28 1.88-11 2.54-1.34 0.238-2.68 0.478-4.02 0.719-0.685 0.123-1.37 0.246-2.08 0.373-2.1 0.409-4.16 0.901-6.23 1.4-6.19 1.4-12.5 1.93-18.8 2.57-2.43 0.248-4.85 0.499-7.28 0.754-1.6 0.162-1.6 0.162-3.22 0.326-2.55 0.216-2.55 0.216-4.56 1.36-2.55 0.246-5.07 0.426-7.63 0.555-1.24 0.0631-1.24 0.0631-2.5 0.127-12.2 0.544-24.3 0.468-36.5 0.448-3.53-0.00569-7.07-0.00231-10.6 0.00344-12.7 0.0176-25.5 0.00149-38.2-0.579-0.87-0.0387-1.74-0.0775-2.64-0.117-5.79-0.308-5.79-0.308-6.92-1.44-2.5-0.35-4.99-0.643-7.51-0.902-1.56-0.17-3.12-0.34-4.68-0.51-2.46-0.263-4.92-0.524-7.39-0.783-2.37-0.251-4.75-0.51-7.12-0.77-0.726-0.074-1.45-0.148-2.2-0.224-4.55-0.5-8.71-1.47-13.1-2.81-3.69-0.754-7.38-1.44-11.1-2.12-3.63-0.745-7.06-1.88-10.6-3.09-2.4-0.808-4.82-1.53-7.26-2.22-8.84-2.53-17-5.11-25.1-9.57-1.86-0.9-3.71-1.8-5.57-2.69-24.5-11.9-48.8-29.2-62.4-53.3-0.438-0.727-0.877-1.45-1.33-2.2-5.32-9.08-10.3-19.1-13-29.3-0.644-2.45-0.644-2.45-1.39-4.44-2.15-5.98-3.16-11.8-3.94-18.1-0.239-1.88-0.481-3.75-0.727-5.62-0.101-0.817-0.203-1.63-0.307-2.48-0.156-1.9-0.156-1.9-1.34-2.9-0.12-2.03-0.17-4.06-0.193-6.09-0.0161-1.31-0.0321-2.61-0.0487-3.96-0.0115-1.44-0.0221-2.87-0.0319-4.31-0.00532-0.721-0.0106-1.44-0.0161-2.18-0.0268-3.82-0.0461-7.64-0.0605-11.5-0.0166-3.94-0.0614-7.88-0.112-11.8-0.0337-3.03-0.0452-6.06-0.0509-9.1-0.00671-1.45-0.0219-2.91-0.0459-4.36-0.0317-2.04-0.0287-4.07-0.0243-6.11-0.00809-1.16-0.0162-2.32-0.0245-3.51 0.608-3.1 0.608-3.1 2.37-5.98 5.02-3.29 9.78-2.8 15.7-2.72 1.26-0.00394 2.52-0.00789 3.82-0.0119 3.45-0.00996 6.9 0.0112 10.4 0.0385 3.61 0.0239 7.23 0.0209 10.8 0.0213 6.07 0.00463 12.1 0.0283 18.2 0.0645 7.01 0.0417 14 0.0593 21 0.0626 7.47 0.0036 14.9 0.0225 22.4 0.0471 2.15 0.00622 4.3 0.00986 6.45 0.013 4.01 0.00701 8.02 0.0314 12 0.0579 1.19 6.65e-4 2.38 0.00133 3.61 0.00201 1.64 0.015 1.64 0.015 3.31 0.0302 0.948 0.00465 1.9 0.0093 2.87 0.0141 4.01 0.397 6.77 1.4 9.63 4.26 0.265 1.96 0.265 1.96 0.287 4.38 0.0134 0.909 0.0268 1.82 0.0406 2.75 0.00792 1.48 0.00792 1.48 0.016 2.99 0.0146 1.02 0.0292 2.03 0.0443 3.08 0.0466 3.26 0.0807 6.53 0.112 9.79 0.0414 4.27 0.0953 8.54 0.156 12.8 0.00792 1.46 0.00792 1.46 0.016 2.94 0.125 8.7 1.13 16.8 5.2 24.6 0.492 0.966 0.985 1.93 1.49 2.93 3.01 5.19 3.01 5.19 7.63 8.76v2c0.545 0.26 1.09 0.521 1.65 0.789 2.72 1.4 5.3 2.99 7.91 4.59 33.9 19.8 87.2 18.1 124 8.88 7.03-1.95 13.7-4.51 20-8.25 1.07-0.619 2.14-1.24 3.25-1.88 2.9-2.24 5.06-4.61 7.36-7.44 1.39-1.68 1.39-1.68 2.91-3.12 9.67-10.2 8.78-26.1 8.79-39.2 0.00768-1.53 0.0162-3.07 0.0256-4.6 0.0182-3.28 0.0303-6.56 0.0375-9.84 0.0116-5.22 0.0371-10.4 0.0643-15.7 0.0415-8.28 0.074-16.6 0.102-24.8 0.0509-14.8 0.114-29.5 0.185-44.3 0.0205-4.32 0.0389-8.64 0.052-13 0.0304-10 0.0843-20.1 0.205-30.1 0.0168-1.42 0.0326-2.84 0.0473-4.26 0.0491-4.65 0.136-9.3 0.243-13.9 0.0132-1.16 0.0263-2.32 0.0399-3.51 0.031-1.06 0.062-2.11 0.094-3.2 0.0194-0.915 0.0388-1.83 0.0587-2.77 0.717-3.22 1.97-4.42 4.54-6.43 3.02-1.16 5.93-1.13 9.14-1.13z" fill="#FCFDFF"/>
<path transform="translate(735 836)" d="m0 0c1.41-0.00136 2.83-0.00314 4.24-0.00531 3.83-0.00454 7.65-0.0028 11.5 3.79e-4 4.03 0.00255 8.06 1.79e-4 12.1-0.00139 6.78-0.00182 13.6 5.71e-4 20.3 0.00534 7.78 0.00541 15.6 0.0037 23.3-0.00183 6.72-0.00458 13.4-0.00516 20.2-0.00256 4 0.00154 7.99 0.00182 12-0.00154 28.4-0.0203 28.4-0.0203 42.1 0.52 0.877 0.0303 1.75 0.0607 2.66 0.0919 5 0.238 9.4 0.533 13.2 4.11 0.472 0.59 0.944 1.18 1.43 1.79 0.715 0.878 0.715 0.878 1.45 1.77 0.708 0.917 0.708 0.917 1.43 1.85 0.545 0.615 1.09 1.23 1.65 1.86 2.67 4.23 1.91 9.33 1.35 14.1-1.66 5.18-5.39 9.19-10 12-2.74 0.476-4.85 0.663-7.58 0.608-1.11 0.00747-1.11 0.00747-2.25 0.0151-2.48 0.0105-4.96-0.0145-7.43-0.0396-1.78 2.27e-4 -3.56 0.00264-5.34 0.00708-4.83 0.0057-9.66-0.0196-14.5-0.0507-5.05-0.0276-10.1-0.0275-15.2-0.0307-8.48-0.0092-17-0.0367-25.4-0.0771-12-0.0569-23.9-0.0792-35.9-0.0953-8.28-0.0124-16.6-0.0331-24.8-0.0554-2.01-0.00537-4.02-0.0105-6.03-0.0154-5.73-0.0143-11.5-0.0337-17.2-0.0615-1.74-0.00774-3.47-0.0138-5.21-0.0181-2.36-0.00619-4.73-0.0185-7.09-0.0326-0.694-4.98e-4 -1.39-9.96e-4 -2.1-0.00151-4.74-0.0381-4.74-0.0381-6.97-1.15-0.0494-4.81-0.0857-9.61-0.11-14.4-0.0101-1.64-0.0237-3.27-0.041-4.91-0.0242-2.35-0.0356-4.7-0.0444-7.04-0.0155-1.1-0.0155-1.1-0.0313-2.22-4.01e-4 -1.81 0.104-3.61 0.227-5.41 5.16-5.16 17.3-3.14 24.1-3.13z"/>
<path transform="translate(720 702)" d="m0 0c1.9-0.0127 1.9-0.0127 3.83-0.0256 1.4 0.00583 2.81 0.012 4.21 0.0184 1.48-0.00406 2.95-0.00941 4.43-0.0159 4.01-0.0137 8.03-0.00836 12 0.00114 4.2 0.00759 8.4 5.52e-4 12.6-0.00416 7.06-0.00546 14.1 0.00174 21.2 0.016 8.16 0.0163 16.3 0.0111 24.5-0.00548 7-0.0136 14-0.0155 21-0.00768 4.18 0.00467 8.37 0.00532 12.5-0.00461 3.94-0.00869 7.87-0.00261 11.8 0.0147 1.44 0.00395 2.88 0.00285 4.33-0.00379 16-0.0667 16-0.0667 21.4 5.34 0.7 1.02 0.7 1.02 1.41 2.06 0.723 1.02 0.723 1.02 1.46 2.06 3.26 5.42 2.7 11.8 2.16 17.9-1.47 4.43-4.35 8.12-8 11-3.82 1.02-7.45 1.13-11.4 1.13-1.29 0.00282-2.58 0.00564-3.91 0.00854-1.42-0.00194-2.85-0.00399-4.27-0.00613-1.5 0.00136-3.01 0.00314-4.51 0.00531-4.08 0.00455-8.16 0.00279-12.2-3.79e-4 -4.27-0.00253-8.54-1.84e-4 -12.8 0.00139-7.16 0.00182-14.3-5.77e-4 -21.5-0.00534-8.29-0.00545-16.6-0.00367-24.9 0.00183-7.12 0.00453-14.2 0.00518-21.3 0.00256-4.25-0.00156-8.5-0.00176-12.8 0.00154-3.99 0.00288-7.99 8.99e-4 -12-0.00489-1.47-0.00133-2.94-9.36e-4 -4.4 0.00126-2 0.00272-4-0.00129-5.99-0.00568-1.12-3.77e-4 -2.24-7.54e-4 -3.39-0.00114-2.62-0.126-2.62-0.126-4.62-1.13-0.0741-4.93-0.129-9.86-0.165-14.8-0.0151-1.68-0.0356-3.35-0.0615-5.03-0.0364-2.41-0.0534-4.82-0.0667-7.23-0.0155-0.75-0.031-1.5-0.0469-2.27-0.00167-5.17-0.00167-5.17 1.48-7.37 2.67-1.87 4.66-1.68 7.9-1.68z"/>
</svg>
