<svg xmlns="http://www.w3.org/2000/svg" version="1.1" xmlns:xlink="http://www.w3.org/1999/xlink" xmlns:svgjs="http://svgjs.dev/svgjs" width="2000" height="2396" viewBox="0 0 2000 2396"><g transform="matrix(1,0,0,1,-4.276506129479458,-3.8645161290323813)"><svg viewBox="0 0 207 248" data-background-color="#000000" preserveAspectRatio="xMidYMid meet" height="2396" width="2000" xmlns="http://www.w3.org/2000/svg" xmlns:xlink="http://www.w3.org/1999/xlink"><g id="tight-bounds" transform="matrix(1,0,0,1,0.4426183844011291,0.4000000000000057)"><svg viewBox="0 0 206.11476323119774 247.2" height="247.2" width="206.11476323119774"><g><svg viewBox="0 0 206.11476323119774 247.2" height="247.2" width="206.11476323119774"><g><svg viewBox="0 0 206.11476323119774 247.2" height="247.2" width="206.11476323119774"><g id="textblocktransform"><svg viewBox="0 0 206.11476323119774 247.2" height="247.2" width="206.11476323119774" id="textblock"><g><svg viewBox="0 0 206.11476323119774 247.2" height="247.2" width="206.11476323119774"><g transform="matrix(1,0,0,1,0,0)"><svg width="206.11476323119774" viewBox="1.54 -32.15 21.92 26.29" height="247.2" data-palette-color="#ffffff"><path d="M5.71-26.54L11.96-20.04 10.4-29.25Q10.33-29.69 10.33-30.03L10.33-30.03Q10.33-32.15 12.48-32.15L12.48-32.15Q14.67-32.15 14.67-30.03L14.67-30.03Q14.67-29.66 14.6-29.25L14.6-29.25 13.06-20.04 19.31-26.54Q20.31-27.61 21.31-27.61L21.31-27.61Q22.12-27.61 22.8-26.86L22.8-26.86Q23.46-26.1 23.46-25.24L23.46-25.24Q23.46-23.97 21.9-23.19L21.9-23.19 13.55-18.99 21.9-14.79Q23.46-14.01 23.46-12.74L23.46-12.74Q23.46-11.96 22.83-11.21L22.83-11.21Q22.17-10.38 21.31-10.38L21.31-10.38Q20.34-10.38 19.31-11.45L19.31-11.45 13.06-17.94 14.6-8.74Q14.67-8.33 14.67-7.96L14.67-7.96Q14.67-5.86 12.5-5.86L12.5-5.86Q10.33-5.86 10.33-7.96L10.33-7.96Q10.33-8.33 10.4-8.74L10.4-8.74 11.96-17.94 5.71-11.45Q4.66-10.38 3.69-10.38L3.69-10.38Q2.86-10.38 2.2-11.16L2.2-11.16Q1.54-11.94 1.54-12.74L1.54-12.74Q1.54-14.01 3.1-14.79L3.1-14.79 11.45-18.99 3.1-23.19Q1.54-23.97 1.54-25.24L1.54-25.24Q1.54-26.05 2.17-26.81L2.17-26.81Q2.86-27.61 3.69-27.61L3.69-27.61Q4.69-27.61 5.71-26.54L5.71-26.54Z" opacity="1" transform="matrix(1,0,0,1,0,0)" fill="#ffffff" class="wordmark-text-0" data-fill-palette-color="primary" id="text-0"></path></svg></g></svg></g></svg></g></svg></g></svg></g><defs></defs></svg><rect width="206.11476323119774" height="247.2" fill="none" stroke="none" visibility="hidden"></rect></g></svg></g></svg>